<svg width="93" height="14" viewBox="0 0 93 14" fill="none" xmlns="http://www.w3.org/2000/svg">
<path d="M2.024 2.2C0.584 3.688 0.824 5.016 1.752 5.56C2.024 5.72 2.376 5.784 2.728 5.784C3.352 5.784 3.944 5.592 3.928 5.448C3.864 4.456 4.488 1.592 8.344 1.592C12.952 1.592 11.848 8.568 7.048 8.168C7.656 6.6 8.36 5.08 9.144 3.608C9.4 3.144 8.392 2.6 7.656 2.6C7.352 2.6 7.096 2.696 6.984 2.904C6.072 4.6 5.272 6.232 4.728 7.64C3.656 10.44 3.512 12.44 5.096 12.584C6.392 12.696 6.024 12.184 6.024 12.184C6.008 12.184 6.072 11.16 6.632 9.352C6.76 9.352 6.888 9.352 7.032 9.336L7.016 9.352C7.016 9.352 8.44 12.92 9.768 13.16C12.008 13.576 12.6 10.52 11.96 10.76C11.752 10.84 11.544 10.872 11.336 10.872C9.896 10.872 8.664 9.16 8.664 9.16C10.712 8.792 13.064 7.8 13.592 5.16C14.408 1.064 9.928 0.344 8.216 0.344C6.136 0.344 3.448 0.712 2.024 2.2ZM17.2956 3.64C17.9036 3.64 18.3996 3.144 18.3996 2.52C18.3996 1.896 17.9036 1.4 17.2956 1.4C16.6716 1.4 16.1756 1.896 16.1756 2.52C16.1756 3.144 16.6716 3.64 17.2956 3.64ZM18.8316 7.432C18.4956 8.248 17.7436 9.592 16.6876 9.592C15.5196 9.592 16.9276 6.408 17.4716 5.144C17.6796 4.68 16.7356 4.232 15.9676 4.232C15.5996 4.232 15.2796 4.344 15.1516 4.616C14.5116 6.056 11.7756 11.928 15.0236 12.28C17.5836 12.568 18.7996 9.928 19.2156 8.072C19.2156 8.072 19.3436 7.464 18.8316 7.432ZM28.4769 7.432C28.1249 8.248 27.5169 9.384 26.4609 9.384C25.8529 9.384 25.8689 8.6 26.1729 7.448C26.9089 4.712 27.8849 2.472 28.1249 1.912C28.3329 1.448 27.3729 0.999999 26.6209 0.999999C26.2369 0.999999 25.9169 1.112 25.8049 1.384C25.2129 2.904 24.8129 4.008 24.4769 4.904C23.9969 4.264 23.0369 4.2 22.6049 4.2C18.5089 4.2 16.9249 11.672 20.2209 11.672C21.5169 11.672 22.4929 10.84 23.1809 9.784C23.1489 10.952 23.5489 11.832 24.8289 11.96C27.3729 12.264 28.4289 9.928 28.8609 8.072C28.8609 8.072 29.0049 7.464 28.4769 7.432ZM21.6449 9.688C19.7409 9.688 21.7089 5.048 23.5009 5.368C24.0929 5.48 23.9969 6.264 23.8209 6.904C23.7889 6.984 23.7729 7.08 23.7249 7.16C23.6769 7.32 23.6129 7.448 23.5809 7.56C23.3089 8.216 22.6529 9.688 21.6449 9.688ZM35.0131 7.432C34.3411 8.952 33.4611 10.168 32.1331 10.168C30.6771 10.168 30.2451 9.08 30.5811 8.136C30.5811 8.136 30.9971 8.376 31.7331 8.376C33.0611 8.376 34.0051 7.608 34.0051 6.2C34.0051 4.696 33.0451 4.216 32.0371 4.216C29.8771 4.216 28.6771 6.872 28.4691 7.4C27.0131 11.224 29.3971 12.28 30.9971 12.28C34.0211 12.28 35.3171 8.856 35.4771 8.12C35.6211 7.4 35.0291 7.4 35.0131 7.432ZM32.7091 5.496C33.4611 5.496 33.2691 7.544 31.7171 7.544C31.4611 7.544 31.1731 7.496 30.8531 7.368C31.3651 6.296 32.0691 5.496 32.7091 5.496ZM49.7643 4.456C49.6363 4.456 49.4283 4.456 49.3643 4.648C48.8363 6.088 48.0523 9.592 46.4843 9.592C45.3163 9.592 46.0523 6.408 46.6123 5.144C46.8203 4.68 46.1643 4.232 45.6043 4.232C45.3323 4.232 45.0763 4.344 44.9483 4.616C44.6603 5.288 44.0363 6.968 43.7963 8.6C43.4123 9.144 42.8843 9.592 42.2603 9.592C41.0923 9.592 41.8283 6.408 42.3883 5.144C42.5963 4.68 41.6523 4.232 40.9003 4.232C40.5323 4.232 40.1963 4.344 40.0843 4.616C39.4443 6.056 37.3642 11.928 40.6123 12.296C42.0683 12.44 43.0923 11.656 43.7803 10.616C43.9403 11.528 44.4363 12.2 45.4763 12.296C48.7723 12.568 50.0363 8.808 50.9323 5.352C51.1403 4.632 50.2763 4.456 49.7643 4.456ZM54.7175 3.64C55.3255 3.64 55.8215 3.144 55.8215 2.52C55.8215 1.896 55.3255 1.4 54.7175 1.4C54.0935 1.4 53.5975 1.896 53.5975 2.52C53.5975 3.144 54.0935 3.64 54.7175 3.64ZM56.2535 7.432C55.9175 8.248 55.1655 9.592 54.1095 9.592C52.9415 9.592 54.3495 6.408 54.8935 5.144C55.1015 4.68 54.1575 4.232 53.3895 4.232C53.0215 4.232 52.7015 4.344 52.5735 4.616C51.9335 6.056 49.1975 11.928 52.4455 12.28C55.0055 12.568 56.2215 9.928 56.6375 8.072C56.6375 8.072 56.7655 7.464 56.2535 7.432ZM61.0348 7.432C60.6828 8.248 60.0748 9.384 59.0188 9.384C58.4108 9.384 58.4428 8.6 58.7468 7.448C58.9868 6.52 59.2588 5.656 59.5308 4.888C59.8828 4.888 60.1548 4.888 60.2668 4.888C60.7628 4.888 61.0348 4.12 60.2988 4.12C60.1708 4.12 60.0108 4.12 59.8028 4.12C60.2028 3.016 60.5548 2.216 60.6828 1.912C60.8908 1.448 59.9148 0.999999 59.1628 0.999999C58.7948 0.999999 58.4748 1.112 58.3628 1.384C57.9308 2.488 57.5948 3.352 57.3228 4.104C57.0028 4.104 56.7308 4.104 56.5388 4.104C55.8347 4.104 55.6747 4.888 56.1227 4.888C56.2668 4.888 56.6188 4.888 57.0508 4.888C56.7148 5.88 56.4588 6.648 56.2188 7.448C55.5307 9.592 55.3547 11.736 57.3868 11.96C59.9308 12.248 60.9868 9.928 61.4188 8.072C61.4188 8.072 61.5628 7.464 61.0348 7.432ZM70.6636 7.432C70.3116 8.248 69.5756 9.592 68.5196 9.592C67.5596 9.592 68.1356 8.072 68.2956 7.592C68.8076 6.152 68.5516 4.744 66.6636 4.632C65.5756 4.568 64.6476 5.208 63.8956 6.024C64.2476 4.856 64.7436 3.48 65.4156 1.912C65.6076 1.448 64.6636 0.999999 63.9116 0.999999C63.5436 0.999999 63.2076 1.112 63.0956 1.384C60.7436 6.84 59.5436 11.608 62.0556 11.608C63.3996 11.608 62.9516 10.904 62.9516 10.904C62.9356 10.904 62.9196 10.088 63.2556 8.44C63.4476 7.848 64.1036 6.12 65.4476 6.152C65.9916 6.168 66.0076 6.776 65.7996 7.464C65.0476 9.88 64.6956 12.04 66.8556 12.28C69.3996 12.568 70.6316 9.928 71.0476 8.072C71.0476 8.072 71.1756 7.464 70.6636 7.432ZM84.3809 7.448C84.0449 8.264 83.4049 9.272 82.3489 9.272C81.7409 9.272 81.8209 8.504 82.0769 7.608C82.3489 6.824 82.7009 6.008 82.9249 5.512C83.1329 5.048 82.1889 4.6 81.4209 4.6C81.0529 4.6 80.7329 4.712 80.6049 4.984C80.5249 5.176 79.9649 6.248 79.5969 7.48C79.2289 8.296 78.4929 9.592 77.4529 9.592C76.2849 9.592 77.6609 6.408 78.2369 5.144C78.4449 4.68 77.5009 4.232 76.7329 4.232C76.3649 4.232 76.0449 4.344 75.9169 4.616C75.2929 6.056 72.5569 11.928 75.7729 12.28C77.4049 12.456 78.4769 11.48 79.1649 10.264C79.3089 11.496 80.1249 12.008 81.2769 12.008C83.3889 12.008 84.3809 9.784 84.7649 8.088C84.7649 8.088 84.8929 7.464 84.3809 7.448ZM88.2794 6.36C87.8314 6.296 87.9594 7.416 88.9354 7.496C89.9114 7.576 92.3114 3.48 88.5514 3.48C85.0954 3.48 84.2794 5.672 84.1674 6.472C83.8314 8.856 87.6714 8.744 87.4634 10.152C87.3994 10.6 86.9994 10.84 86.1994 10.84C84.3594 10.84 85.7994 9.368 85.3034 9.368C84.9994 9.368 84.1034 9.784 83.9434 10.904C83.7994 11.832 84.0714 12.904 86.0714 12.904C87.5594 12.904 88.8874 12.056 89.2714 10.488C89.9754 7.496 85.2874 7.944 86.5034 6.008C86.8714 5.464 87.8154 5.096 88.3594 5.096C89.6394 5.096 88.7274 6.408 88.2794 6.36Z" fill="#F3704E"/>
</svg>
