<svg id="Layer_1" data-name="Layer 1" xmlns="http://www.w3.org/2000/svg" viewBox="0 0 428.28 386.86"><defs><style>.cls-1{fill:#fff;}.cls-1,.cls-22{stroke:#231f20;}.cls-1,.cls-10,.cls-15,.cls-16,.cls-18,.cls-2,.cls-22,.cls-3,.cls-4,.cls-7,.cls-8,.cls-9{stroke-linecap:round;stroke-linejoin:round;}.cls-1,.cls-3,.cls-4{stroke-width:6px;}.cls-13,.cls-2{fill:#414042;}.cls-10,.cls-12,.cls-15,.cls-16,.cls-18,.cls-2,.cls-7,.cls-8,.cls-9{stroke:#414042;}.cls-2,.cls-22,.cls-9{stroke-width:4.8px;}.cls-10,.cls-12,.cls-16,.cls-18,.cls-22,.cls-3,.cls-4,.cls-8{fill:none;}.cls-3,.cls-4{stroke:#f47850;}.cls-4{stroke-dasharray:0.99 15.77;}.cls-5{fill:#dff3fb;}.cls-6{fill:#536853;}.cls-15,.cls-19,.cls-7,.cls-9{fill:#ebebec;}.cls-7,.cls-8{stroke-width:1.56px;}.cls-10{stroke-width:1.92px;}.cls-11{fill:#f3704e;}.cls-12{stroke-miterlimit:10;stroke-width:2px;}.cls-14{fill:#456885;}.cls-15,.cls-16{stroke-width:1.21px;}.cls-17{fill:#ecca67;}.cls-18{stroke-width:1.39px;}.cls-20{fill:#a7a9ac;}.cls-21{fill:#bce6f9;}</style></defs><circle class="cls-1" cx="213.57" cy="193.43" r="177.06"/><circle class="cls-2" cx="214.14" cy="197.4" r="115.23"/><path class="cls-3" d="M340.27,141.22l.2.44"/><path class="cls-4" d="M346.25,156.33a139.61,139.61,0,1,1-262.84-3.85c.22-.43,2-4.3,4.59-9.15"/><path class="cls-3" d="M91.82,136.42c.08-.14.16-.28.25-.42"/><path class="cls-5" d="M108.38,152s24.53-69.33,110.4-69.33c0,0,55.73-5.34,94.93,58.93L279,162.35l-47.73-18.13-5.07-.54-26.13,9.07h-3.73l-46-20.8-6.27-1.33-6.29,2.8-24.11,16.93Z"/><path class="cls-6" d="M98.78,193.28H329.71s-5.87,119.35-115.57,119.35C101.4,312.63,98.78,193.28,98.78,193.28Z"/><polygon class="cls-7" points="276.45 254.18 289.82 217.85 303.19 254.18 276.45 254.18"/><line class="cls-8" x1="289.42" y1="236.59" x2="286.33" y2="233.5"/><line class="cls-8" x1="289.42" y1="244.61" x2="284.46" y2="239.64"/><line class="cls-8" x1="289.42" y1="252.62" x2="282.58" y2="245.78"/><line class="cls-8" x1="293.35" y1="233.5" x2="290.26" y2="236.59"/><line class="cls-8" x1="295.22" y1="239.64" x2="290.26" y2="244.61"/><line class="cls-8" x1="297.09" y1="245.78" x2="290.26" y2="252.62"/><line class="cls-8" x1="289.82" y1="229.06" x2="289.82" y2="261.83"/><path class="cls-9" d="M145.06,289.36,194.66,213h34l48.4,78.79s-17.6,20-61.6,20S145.06,289.36,145.06,289.36Z"/><polyline class="cls-10" points="329.37 193.43 287.38 193.43 250.22 193.43 172.92 193.43 163.32 193.43 155.15 193.43 118.61 193.43 98.91 193.43"/><path class="cls-11" d="M94.28,91.08c3.44-4.1,13.82-13.66,20-5.12,4,5.51,1.16,12.73-2.25,18.22,0,0,5.76-.19,8.65-3.64a6.8,6.8,0,0,0,1-1.67c.83-1.92,5.49,4.41.19,9.1-3.13,2.79-12.82.46-12.82.46v-.06a12,12,0,0,1-.77,1c2.33,4.25,4.16,6.05,4.2,6s1.72-.06-1.1,2.86c-3.46,3.56-7,0-10.2-7.06a101.8,101.8,0,0,1-4.54-13,2.49,2.49,0,0,1,.77-2.09c1.48-1.77,4.55-3.3,4.92-1.94a96.07,96.07,0,0,0,4.52,12.34c10.41-10.84-.73-24.7-10-13.67-7.75,9.23-3.52,15.32-1.5,16.77.31.19-.51,1.91-1.77,3.41a7.19,7.19,0,0,1-2.39,2c-2.9,1.35-5.93-.21-5.88-6.05S90.1,96.06,94.28,91.08Z"/><path class="cls-11" d="M115.68,75.2a3.48,3.48,0,1,1,4.82.36A3.4,3.4,0,0,1,115.68,75.2Zm17.79,6.74c2.49,5.09,4.51,13.57-2.23,18-8.52,5.61-12.94-13.3-14.1-17.87a2.69,2.69,0,0,1,1.26-2.5c1.85-1.52,5-2.35,5.35-.88,1.06,4,3.64,14.09,6.46,11.78,2.56-2.09,1.85-6.67,1.13-9.21C132.64,80.29,133.47,81.94,133.47,81.94Z"/><path class="cls-11" d="M158.9,67.75c1.44,5.14,1.88,12.41-5.4,15.7-3.63,1.72-5.95.24-7.51-2.62-.37,3.62-1.83,7.16-5.32,9.21-8.89,5.21-15.13-15.22-4.09-21.7,1.17-.68,3.85-2,6-1.26-.35-2.69-.83-6-1.37-10.55-.08-.83.63-1.6,1.66-2.21,2-1.19,5.25-1.63,5.34-.19a107.22,107.22,0,0,0,2.52,16.37c.8,3.24,1.86,5.15,3.5,4.19,2.85-1.67,2.89-5.36,2.69-7.87C158.43,66.06,158.9,67.75,158.9,67.75Zm-15,7.11c-.07-.32-.08-.72-.17-1.18a4.62,4.62,0,0,0-.1-.77c-.43-1.81-1.27-3.85-3-3.18C135.36,71.8,136.58,86,141.72,83,144.43,81.44,144.13,76.87,143.94,74.86Z"/><path class="cls-11" d="M179.49,60.33c.25,2.23-.21,13.16-9.12,16.29-4.72,1.66-12.79,1.16-12.25-11.06.09-1.69,1-10.38,7.39-12.61,3-1,6.28-.69,7.75,3.53,1.39,3.94-.64,7.07-4.56,8.44a8.06,8.06,0,0,1-3.63.52c-.07,3,2.28,5.59,6.57,4.09,3.92-1.37,5.32-5.69,5.81-10.64C177.46,58.78,179.21,58.17,179.49,60.33ZM165.12,63a7.88,7.88,0,0,0,2.72-.4c4.57-1.61,3.13-7.54.91-6.77C166.86,56.5,165.57,59.47,165.12,63Z"/><path class="cls-11" d="M229.32,48c-2.63,10.3-6.4,21.53-16.71,20.89-3.26-.23-4.84-2.2-5.38-4.9-2.1,3.12-5.26,5.5-9.82,5.14-10.16-.92-3.95-18.46-2-22.77a2.63,2.63,0,0,1,2.53-1.18c2.35,0,5.32,1.24,4.69,2.63-1.68,3.78-3.83,13.27-.18,13.21,1.95,0,3.58-1.39,4.75-3a50.7,50.7,0,0,1,3.41-11.88,2.15,2.15,0,0,1,2-1.18c1.75,0,3.82,1.27,3.19,2.66-1.69,3.78-3.83,13.27-.18,13.21,4.9-.08,7.17-10.52,8.75-14.82.19-.58.84-.59,1.24-.59C227.22,45.35,229.93,45.83,229.32,48Z"/><path class="cls-11" d="M245.16,60.32C243,65.26,238.08,72,230.32,69.88c-9.86-2.61,1.25-17.53,3.87-21.2a2.74,2.74,0,0,1,2.69-.66c2.37.39,5.08,2.11,4.23,3.29-2.25,3.24-8,11.36-4.44,11.95,3.26.53,6.19-2.82,7.59-4.91C245.83,58.7,245.16,60.32,245.16,60.32ZM238.3,43.38a3.49,3.49,0,0,1,6.86,1.12,3.49,3.49,0,0,1-6.86-1.12Z"/><path class="cls-11" d="M260.14,64.68c-2.73,4.65-7.68,10-15.11,7.08-5.94-2.34-3.76-8-.05-13.2,1.34-2,2.7-3.82,4.47-6.22l-2.79-.79c-1.35-.38-.26-2.37,1.85-1.77l2.36.67c1.39-1.8,3.07-3.85,5.21-6.47a2.6,2.6,0,0,1,2.7-.36c2.26.64,4.85,2.69,3.87,3.77-.62.71-2.29,2.57-4.34,5.22l1.49.42c2.22.63.81,2.48-.68,2l-2.21-.63c-1.41,1.85-2.89,4-4.33,6.26-1.8,2.86-2.49,4.95-.67,5.47,3.18.9,5.88-1.65,7.56-3.56C261,63.16,260.14,64.68,260.14,64.68Z"/><path class="cls-11" d="M288.32,77.66c-3.43,4.14-10.12,9.17-16.93,5-5.79-3.53-2.17-8.53,2.89-13.64,1.43-1.46,2.12-3,.61-3.8-3.74-1.9-7.7,1.59-9,2.83-3,3.73-3.9,5.82-3.86,5.84s.4,2.39-3.38.57c-7.07-3.4,2.12-13.86,15.39-24.51.65-.54,1.73-.37,2.77.13,2.11,1,4.23,3.43,3.12,4.35a103.68,103.68,0,0,0-9.29,8.37c3.11-1,6.5-1.42,9.49.22,5.18,2.84,4.18,6.75,1,9.71-1,1-4.51,4.07-1.81,5.37,3,1.43,6.69-1,8.67-2.57C289.42,76.29,288.32,77.66,288.32,77.66Z"/><path class="cls-11" d="M322.24,107c-4.38,2.77-11.21,5.33-15.93.72-2.58-2.51-3.34-5.38-1.11-8.31-4.06,1.08-8.48.82-11.76-3.12-6.47-7.76,11.83-14.27,16.21-16a2.66,2.66,0,0,1,2.62,1c1.72,1.68,2.9,4.69,1.47,5.22-3.91,1.43-13.58,5.2-11,7.74,2.32,2.27,6.66,1.13,9.17.2a51.2,51.2,0,0,1,7.43-3.11,2.65,2.65,0,0,1,2.62,1c1.72,1.67,2.9,4.68,1.47,5.22s-4,1.53-6.24,2.6c-2.43,1.34-4.2,2.8-2.84,4.13,2.36,2.3,5.88,1.56,8.33.56C323.82,105.91,322.24,107,322.24,107Z"/><path class="cls-11" d="M334.33,109.72c-1-1.37-3.64-3.1-5.62-3.07-6.88.35,2.87,11.36-5.59,14.85-4.46,1.79-8.95-.06-11.7-3.81-3.71-5-1.65-7.6.84-8.87a5.21,5.21,0,0,1,6.19.72c.92,1.25-5.27.21-1.86,4.84,1.48,2,2.79,2.6,4,2,3.76-2-3.62-11.43,2.71-14.77,2.12-1.13,8.87-2.93,15.27,5.77,7,9.47-7.28,10.63-8.9,8s.83-4.89,1.5-3.65S336.7,112.94,334.33,109.72Z"/><path class="cls-10" d="M315,139.66l-9.13,6-9.6,6.33-8.4,5.53-5.8,3.69a8.15,8.15,0,0,1-7.43.68L268,159.26l-29.51-12.78c-5.75-2.49-12.19-3.81-17.75-.93l-17.53,6.29c-5.55,2.87-11.7.1-18.21-3.09L150.38,132a10.89,10.89,0,0,0-8.53-.16l-4,1.63c-.4.16-33.5,23.77-33.5,23.77"/><path class="cls-12" d="M310.18,131.34H270.56a12,12,0,0,1,11.18-7.46s2.42-13.26,10.82-12.86"/><path class="cls-12" d="M138.7,107.93a14.62,14.62,0,0,1,11.88,4s15.89-.49,15.89,8.79H130.73"/><path class="cls-10" d="M214.14,311.78a114.63,114.63,0,0,0,63.64-19.17l-61.39-96.08-5.65,0-5.65,0L145.8,289.32A114.71,114.71,0,0,0,214.14,311.78Z"/><polygon class="cls-13" points="209.78 312.63 208.81 300.63 212.67 300.63 211.7 312.63 209.78 312.63"/><polygon class="cls-13" points="208.21 293.23 206.55 272.68 214.93 272.68 213.27 293.23 208.21 293.23"/><polygon class="cls-13" points="205.96 265.29 204.3 244.74 217.18 244.74 215.52 265.29 205.96 265.29"/><polygon class="cls-13" points="203.7 237.34 202.04 216.79 219.44 216.79 217.78 237.34 203.7 237.34"/><polygon class="cls-13" points="201.44 209.4 200.47 197.4 221.01 197.4 220.04 209.4 201.44 209.4"/><path class="cls-14" d="M241,207.44c0,.41-1.31.74-2.93.74s-2.93-.33-2.93-.74,1.31-.73,2.93-.73S241,207,241,207.44Z"/><path class="cls-14" d="M248.38,208.91c0,.33-1,.59-2.17.59s-2.17-.26-2.17-.59,1-.6,2.17-.6S248.38,208.58,248.38,208.91Z"/><path class="cls-14" d="M174.56,218.47c0,.35-1.05.64-2.33.64s-2.33-.29-2.33-.64,1-.64,2.33-.64S174.56,218.11,174.56,218.47Z"/><path class="cls-14" d="M310.54,205.7c0,.33-1,.6-2.16.6s-2.17-.27-2.17-.6,1-.6,2.17-.6S310.54,205.37,310.54,205.7Z"/><path class="cls-14" d="M186.5,204c0,.51-1.37.93-3.06.93s-3.07-.42-3.07-.93,1.38-.93,3.07-.93S186.5,203.47,186.5,204Z"/><path class="cls-14" d="M258.59,229.65c0,.37-.76.67-1.69.67s-1.69-.3-1.69-.67.75-.67,1.69-.67S258.59,229.28,258.59,229.65Z"/><polygon class="cls-15" points="110.72 206.34 121.07 178.22 131.42 206.34 110.72 206.34"/><line class="cls-16" x1="120.76" y1="192.72" x2="118.37" y2="190.33"/><line class="cls-16" x1="120.76" y1="198.93" x2="116.92" y2="195.08"/><line class="cls-16" x1="120.76" y1="205.13" x2="115.47" y2="199.84"/><line class="cls-16" x1="123.8" y1="190.33" x2="121.41" y2="192.72"/><line class="cls-16" x1="125.25" y1="195.08" x2="121.41" y2="198.93"/><line class="cls-16" x1="126.7" y1="199.84" x2="121.41" y2="205.13"/><line class="cls-16" x1="121.07" y1="186.89" x2="121.07" y2="212.26"/><polygon class="cls-7" points="126.9 233.41 140.27 197.09 153.64 233.41 126.9 233.41"/><line class="cls-8" x1="139.87" y1="215.82" x2="136.78" y2="212.73"/><line class="cls-8" x1="139.87" y1="223.84" x2="134.91" y2="218.87"/><line class="cls-8" x1="139.87" y1="231.85" x2="133.03" y2="225.02"/><line class="cls-8" x1="143.79" y1="212.73" x2="140.7" y2="215.82"/><line class="cls-8" x1="145.67" y1="218.87" x2="140.7" y2="223.84"/><line class="cls-8" x1="147.54" y1="225.02" x2="140.7" y2="231.85"/><line class="cls-8" x1="140.27" y1="208.3" x2="140.27" y2="241.06"/><path class="cls-17" d="M187.66,139.22h49s-5-21-24-21C188.68,118.25,187.66,139.22,187.66,139.22Z"/><path class="cls-13" d="M190.39,142.57h-.1a.82.82,0,0,1-.72-.91A25.14,25.14,0,0,1,227,122.75a25.23,25.23,0,0,1,12.52,18.81.82.82,0,0,1-.71.92.84.84,0,0,1-.92-.72,23.49,23.49,0,0,0-46.65.09A.82.82,0,0,1,190.39,142.57Z"/><path class="cls-13" d="M241.91,140.31a.82.82,0,0,1-.14-1.63l17-3a.82.82,0,1,1,.29,1.62l-17,3Z"/><path class="cls-13" d="M240.61,135.58a.83.83,0,0,1-.29-1.6l16.2-5.9a.83.83,0,0,1,.57,1.55l-16.2,5.9A1,1,0,0,1,240.61,135.58Z"/><path class="cls-13" d="M238.5,131.14a.83.83,0,0,1-.41-1.54L253,121a.82.82,0,0,1,1.12.3.83.83,0,0,1-.3,1.13L238.91,131A.87.87,0,0,1,238.5,131.14Z"/><path class="cls-13" d="M235.65,127.13a.81.81,0,0,1-.63-.3.82.82,0,0,1,.1-1.15l13.21-11.09a.82.82,0,0,1,1.06,1.26l-13.21,11.09A.8.8,0,0,1,235.65,127.13Z"/><path class="cls-13" d="M232.15,123.68a.83.83,0,0,1-.53-.2.82.82,0,0,1-.1-1.15l11.08-13.21a.82.82,0,0,1,1.26,1.06l-11.08,13.2A.8.8,0,0,1,232.15,123.68Z"/><path class="cls-13" d="M228.11,120.89a.78.78,0,0,1-.41-.12.81.81,0,0,1-.3-1.12L236,104.72a.83.83,0,0,1,1.13-.3.82.82,0,0,1,.3,1.12l-8.62,14.93A.82.82,0,0,1,228.11,120.89Z"/><path class="cls-13" d="M223.64,118.84a.87.87,0,0,1-.28,0,.82.82,0,0,1-.49-1.06l5.89-16.19a.82.82,0,1,1,1.55.56l-5.9,16.2A.83.83,0,0,1,223.64,118.84Z"/><path class="cls-13" d="M218.88,117.6h-.14a.83.83,0,0,1-.67-1l3-17a.83.83,0,0,1,1-.67.81.81,0,0,1,.66,1l-3,17A.82.82,0,0,1,218.88,117.6Z"/><path class="cls-13" d="M214,117.2a.82.82,0,0,1-.82-.82V99.14a.82.82,0,0,1,1.64,0v17.24A.81.81,0,0,1,214,117.2Z"/><path class="cls-13" d="M209.09,117.67a.83.83,0,0,1-.81-.68l-3-17a.82.82,0,0,1,.66-1,.83.83,0,0,1,1,.66l3,17a.82.82,0,0,1-.67,1Z"/><path class="cls-13" d="M204.35,119a.82.82,0,0,1-.77-.54l-5.9-16.2a.82.82,0,0,1,1.55-.56l5.89,16.2a.81.81,0,0,1-.49,1A.92.92,0,0,1,204.35,119Z"/><path class="cls-13" d="M199.91,121.08a.83.83,0,0,1-.71-.41l-8.62-14.93a.83.83,0,0,1,.3-1.13.82.82,0,0,1,1.12.31l8.62,14.92a.83.83,0,0,1-.3,1.13A.87.87,0,0,1,199.91,121.08Z"/><path class="cls-13" d="M195.9,123.92a.85.85,0,0,1-.63-.29l-11.08-13.2a.83.83,0,0,1,.1-1.16.81.81,0,0,1,1.16.1l11.08,13.2a.81.81,0,0,1-.1,1.16A.8.8,0,0,1,195.9,123.92Z"/><path class="cls-13" d="M192.45,127.42a.82.82,0,0,1-.53-.19l-13.2-11.08a.82.82,0,0,1,1.05-1.26L193,126a.82.82,0,0,1-.53,1.45Z"/><path class="cls-13" d="M189.66,131.47a.87.87,0,0,1-.41-.11l-14.93-8.62a.82.82,0,0,1-.3-1.12.81.81,0,0,1,1.12-.3l14.93,8.61a.83.83,0,0,1-.41,1.54Z"/><path class="cls-13" d="M187.61,135.94a.92.92,0,0,1-.28-.05l-16.2-5.9a.82.82,0,1,1,.56-1.54l16.2,5.89a.82.82,0,0,1-.28,1.6Z"/><path class="cls-13" d="M186.37,140.69h-.14l-17-3a.82.82,0,0,1,.29-1.62l17,3a.82.82,0,0,1-.15,1.63Z"/><polygon class="cls-7" points="289.78 209.41 301.67 177.12 313.56 209.41 289.78 209.41"/><line class="cls-18" x1="301.32" y1="193.77" x2="298.57" y2="191.02"/><line class="cls-18" x1="301.32" y1="200.9" x2="296.9" y2="196.49"/><line class="cls-18" x1="301.32" y1="208.03" x2="295.24" y2="201.95"/><line class="cls-18" x1="304.81" y1="191.02" x2="302.06" y2="193.77"/><line class="cls-18" x1="306.47" y1="196.49" x2="302.06" y2="200.9"/><line class="cls-18" x1="308.14" y1="201.95" x2="302.06" y2="208.03"/><line class="cls-18" x1="301.67" y1="187.08" x2="301.67" y2="216.22"/><path class="cls-19" d="M163.59,173.65l-4.74,49,52.25,38.54,20.32-11.17,28.63-25.47,8-9.44-3.15-38.93s-1.14-8.3-22.32-10.59S173.61,163.35,163.59,173.65Z"/><path class="cls-20" d="M171.68,196.44a15.34,15.34,0,0,0-.17,3,8.2,8.2,0,0,0,.52,2.8,3.93,3.93,0,0,0,1.47,1.94,4.44,4.44,0,0,0,2.28.62h.65l.67,0,1.53-.1,3-.2c2-.14,4.05-.23,6.07-.34q12.13-.56,24.28-.58t24.28.38c4,.16,8.09.33,12.12.59l1.5.08.36,0c.11,0,0,0,0,0l-.05,0,0,0,.2-.05a2.32,2.32,0,0,1,.27,0h.39l.39,0a8,8,0,0,0,2.58-.12,2.68,2.68,0,0,0,1.77-1.31,5.42,5.42,0,0,0,.61-2.62v-.06c.17-1.43.37-2.87.58-4.3.16,1.44.29,2.88.41,4.32v-.06a6.84,6.84,0,0,1-.05,3.36,4.67,4.67,0,0,1-2.49,2.76,9.16,9.16,0,0,1-3.38.81l-.37,0-.14,0h0l.11,0-.12,0-.23.05-.38,0-.4,0-1.54.13c-4.06.34-8.1.53-12.15.72q-12.15.5-24.29.44t-24.28-.59c-2-.1-4.05-.19-6.07-.34l-3-.2-1.5-.11-.84-.06c-.29-.05-.58-.08-.87-.14a6.76,6.76,0,0,1-3.26-1.65,5.47,5.47,0,0,1-1.59-3.18A11.16,11.16,0,0,1,171.68,196.44Z"/><path class="cls-21" d="M161.73,215.14s49.37,3.45,51.66,41.8c0,0,4.65-38.07,53.31-41.5l.21,44.94L218,265l-31.77-4.87-20.89-3.15Z"/><path class="cls-13" d="M282.42,192c0,2.8,0,5.61,0,8.4,0,2.47-1.25,3.8-3.74,4.06-.22,0-.43.09-.84.18,0,.88,0,1.74,0,2.61-.11,3-1.7,4.55-4.69,4.6-1.28,0-2.56,0-3.95,0,0,.84,0,1.56,0,2.28.24,5.33.57,10.66.72,16,.17,7.22.23,14.43.3,21.66,0,2.75,0,5.52,0,8.27a10.2,10.2,0,0,1-2.54,7.37,1.52,1.52,0,0,0-.19.42c2.38.92,3.17,2.77,3,5.16,0,.78,0,1.57,0,2.34a4,4,0,0,1-3.56,3.95l-1.08.24c0,1.94,0,3.86,0,5.78a9.67,9.67,0,0,1-.17,2.47c-.78,2.92-2.61,5-5.67,5.27a45.72,45.72,0,0,1-9.21,0,6.5,6.5,0,0,1-5.66-6.5c-.07-2.29,0-4.59,0-7h-2.89c-.92,2.85-2.85,4.72-6,4.61-2.89-.09-4.71-1.83-5.56-4.65H197.9c-.9,2.86-2.78,4.66-5.8,4.66s-4.9-1.8-5.79-4.66h-3.44c0,2,0,3.93,0,5.86a11.59,11.59,0,0,1-.41,3,6.89,6.89,0,0,1-6.59,5c-2.3.07-4.61.08-6.91,0a7.11,7.11,0,0,1-6.95-7.28c0-2.16,0-4.3,0-6.49l-.88-.28a4,4,0,0,1-3-3.75,23.69,23.69,0,0,1,0-3.86,4.25,4.25,0,0,1,2.93-3.73l-.81-1a8.57,8.57,0,0,1-1.92-5.33q.09-15.45.22-30.9c0-2.62.17-5.24.26-7.85q.21-4.87.4-9.75c0-.31,0-.62,0-1.12h-2.65a20.42,20.42,0,0,1-2.07,0,4.25,4.25,0,0,1-4.13-4.48c0-.91,0-1.81,0-2.63-.24-.13-.32-.21-.4-.21-2.66,0-4.27-1.73-4.14-4.53.1-2.47,0-5,0-7.44,0-2.94,1.4-4.3,4.31-4.33h3.19c2.67,0,4.13,1.42,4.16,4s0,5.52,0,8.28c0,2.4-1.3,3.7-3.71,3.92l-.73.09c0,1.13-.07,2.26,0,3.38a1.35,1.35,0,0,0,1.42,1.26c1.24,0,2.49,0,3.73,0,.36,0,.72,0,1.18-.06.2-2.43.38-4.8.58-7.16.44-5.23.88-10.44,1.36-15.66.27-3.11.54-6.22.92-9.31a8.7,8.7,0,0,1,5-7,51.58,51.58,0,0,1,12.08-4.17,122.39,122.39,0,0,1,18-2.79,189.44,189.44,0,0,1,27.88-.47c9.84.55,19.6,1.66,29.06,4.64a51.23,51.23,0,0,1,6.77,2.68,8.48,8.48,0,0,1,5.11,7.57c.27,3.85.87,7.67,1.24,11.51.36,3.66.63,7.32.92,11,.23,3,.43,6,.66,9.21,1.65,0,3.12,0,4.6,0a1.53,1.53,0,0,0,1.69-1.61c.06-.95,0-1.91,0-3l-1.26-.17a3.53,3.53,0,0,1-3.15-2.83,12,12,0,0,1-.19-2.32c0-2.16,0-4.33,0-6.49-.08-3.42,2.14-4.78,4.54-4.59,1.15.09,2.31,0,3.46,0A3.69,3.69,0,0,1,282.42,192Zm-2.61,8.54c0-2.71.08-5.42.06-8.13,0-1.23-.38-1.55-1.59-1.59s-2.21,0-3.31,0c-1.32,0-1.64.35-1.66,1.64s0,2.58,0,3.86h0c0,1.34,0,2.67,0,4,0,1.12.38,1.5,1.49,1.54s2.39,0,3.59,0A1.25,1.25,0,0,0,279.81,200.52Zm-12,74.5c0-.77,0-1.56,0-2.33,0-2-.3-2.34-2.28-2.35h-21.8c-.44,0-.88,0-1.4.07v6.23c.54,0,.89.08,1.26.08h22.48C267.3,276.65,267.78,276.2,267.83,275Zm-.32-13.86c.15-12.59.07-25.19-.5-37.77a9,9,0,0,0-.17-1c-1.27.16-2.46.29-3.64.47a64.81,64.81,0,0,0-25.06,8.82,46,46,0,0,0-18.86,21.88c-.24.57-.45,1.16-.74,1.91,2.38,0,4.53,0,6.7,0,1.45,0,1.91.45,1.92,1.88s0,2.83,0,4.46c1.31,0,2.41,0,3.5,0a2.21,2.21,0,0,0,1.71-.68,5.75,5.75,0,0,1,8-.1,2.63,2.63,0,0,0,2,.72c3.81,0,7.64,0,11.46,0,3.35,0,5.23,1.51,6,4.72.09.34.22.68.31,1A6.45,6.45,0,0,0,267.51,261.16Zm-.63-41.45c0-.44,0-.72,0-1-.32-5.69-.62-11.39-1-17.07-.24-3.62-.56-7.24-.9-10.86-.4-4.1-.85-8.22-1.31-12.32-.18-1.73-.26-3.54-1.72-4.79a11.17,11.17,0,0,0-2.73-1.81,68.52,68.52,0,0,0-6.85-2.5c-10.5-3.06-21.3-4.1-32.16-4.4A180.78,180.78,0,0,0,194,166a103.7,103.7,0,0,0-18.89,3.73,51.89,51.89,0,0,0-6.77,2.7,5.72,5.72,0,0,0-3.44,5.11c-.1,1.74-.39,3.46-.57,5.2-.53,5.44-1.11,10.87-1.56,16.32s-.74,10.73-1.06,16.09c-.09,1.5,0,3,0,4.49a1.2,1.2,0,0,0,.28.16,2.35,2.35,0,0,0,.54.1,69.59,69.59,0,0,1,23.77,6.68c12.3,6,21.23,15.17,26,28.12a6.64,6.64,0,0,0,.39.76h3l.57-1.46a48.09,48.09,0,0,1,14.68-20.35c8.89-7.25,19.21-11.22,30.41-13.16C263.13,220.18,265,220,266.88,219.71Zm-4.26,66.93a32.82,32.82,0,0,0,0-3.29v-3.54H248.39c.38.26.34,7.57.34,7.57s.52,3.23,7.14,3.23S262.62,286.64,262.62,286.64Zm-20.2-19.13h14.65c-.23-2.11-1.05-2.95-3-3-3.62-.05-7.26,0-10.89,0a3.81,3.81,0,0,0-.78.18Zm-2.77,4.43c0-2.16,0-4.33,0-6.49a3.19,3.19,0,1,0-6.37-.05c0,4.28,0,8.56,0,12.83a3.08,3.08,0,0,0,1.11,2.44,3.17,3.17,0,0,0,5.27-2.38C239.67,276.17,239.65,274.06,239.65,271.94Zm-9.21,4.69v-6.2H198v6.2Zm0-9.13v-2.85h-3.08v2.85Zm-6.15-.3v-8.76H204.41v8.76Zm-17.76-11.7h3.25c-.27-.74-.45-1.26-.66-1.77a45.82,45.82,0,0,0-17.51-21.12,63.61,63.61,0,0,0-24.41-9.41c-1.83-.33-3.69-.54-5.63-.8-.06.53-.13.88-.14,1.24-.08,2.07-.19,4.14-.21,6.2q-.17,14.67-.29,29.36a18.86,18.86,0,0,0,.13,2.61,6.53,6.53,0,0,0,7.44,5.71c.06-.23.11-.41.15-.58,1-3.82,2.64-5.13,6.54-5.14h11a2.56,2.56,0,0,0,1.87-.65,5.86,5.86,0,0,1,8.24.11,1.84,1.84,0,0,0,.9.55c1.35.06,2.71,0,4.21,0,0-1.67,0-3.13,0-4.59s.44-1.71,1.76-1.74C204.29,255.49,205.39,255.51,206.49,255.5Zm-5.22,12v-2.86H198c0,1,.08,1.87.14,2.86Zm-5.94,9.92q0-5.52,0-11a8.24,8.24,0,0,0-.2-1.92,3.14,3.14,0,0,0-6-.33,5.81,5.81,0,0,0-.25,1.76c0,1.94,0,3.86,0,5.8h0c0,2.3-.07,4.6,0,6.89a3,3,0,0,0,2.87,2.83,3.15,3.15,0,0,0,3.3-2.37A7.41,7.41,0,0,0,195.33,277.46Zm-9.11-.81v-6.22c-.42,0-.73-.08-1-.08q-11.25,0-22.5,0c-.13,0-.27,0-.41,0a1.38,1.38,0,0,0-1.46,1.48c0,.83,0,1.66,0,2.47,0,2.08.36,2.43,2.39,2.43l21.67,0C185.3,276.75,185.74,276.68,186.22,276.65Zm-.09-9.13v-2.95c-4.14,0-8.18-.06-12.22,0-1.46,0-2.18,1-2.39,2.93Zm-6.75,19.12v-6.83H165.14c.19.12,0,7.57,0,7.57s.86,3.23,7.49,3.23S179.38,286.64,179.38,286.64ZM155,196.35c0-1.33,0-2.67,0-4-.05-1.11-.42-1.5-1.52-1.53s-2.39,0-3.58,0-1.51.42-1.52,1.53c0,2.67,0,5.33,0,8,0,1.08.45,1.48,1.54,1.53s2.21,0,3.32,0c1.34-.05,1.67-.4,1.7-1.79,0-1.23,0-2.48,0-3.72Z"/><path class="cls-19" d="M279.87,192.39c0,2.71,0,5.42-.06,8.13a1.25,1.25,0,0,1-1.4,1.34c-1.2,0-2.4,0-3.59,0s-1.47-.42-1.49-1.54c0-1.33,0-2.66,0-4h0c0-1.28,0-2.56,0-3.86s.34-1.6,1.66-1.64c1.1,0,2.21,0,3.31,0S279.86,191.16,279.87,192.39Z"/><path class="cls-21" d="M267.86,272.69c0,.77,0,1.56,0,2.33-.05,1.18-.53,1.63-1.71,1.71H243.64c-.37,0-.72-.05-1.26-.08v-6.23c.52,0,1-.07,1.4-.07h21.8C267.56,270.35,267.86,270.65,267.86,272.69Z"/><path class="cls-21" d="M267,223.39c.57,12.58.65,25.18.5,37.77a6.45,6.45,0,0,1-7.34,6.33c-.09-.29-.22-.63-.31-1-.81-3.21-2.69-4.71-6-4.72-3.82,0-7.65,0-11.46,0a2.63,2.63,0,0,1-2-.72,5.75,5.75,0,0,0-8,.1,2.21,2.21,0,0,1-1.71.68c-1.09-.05-2.19,0-3.5,0,0-1.63,0-3,0-4.46s-.47-1.87-1.92-1.88c-2.17,0-4.32,0-6.7,0,.29-.75.5-1.34.74-1.91a46,46,0,0,1,18.86-21.88,64.81,64.81,0,0,1,25.06-8.82c1.18-.18,2.37-.31,3.64-.47A9,9,0,0,1,267,223.39Zm-1.6,9a5.37,5.37,0,0,0-5.36-5.48,5.45,5.45,0,1,0,5.36,5.48Zm-5.63,15.11a10.21,10.21,0,1,0-10.26,10.17A10.25,10.25,0,0,0,259.78,247.52Z"/><path class="cls-13" d="M260.05,226.93a5.45,5.45,0,0,1-.09,10.89,5.45,5.45,0,1,1,.09-10.89Zm0,8a2.53,2.53,0,0,0,2.5-2.58,2.39,2.39,0,0,0-2.47-2.55,2.57,2.57,0,0,0-2.65,2.45A2.74,2.74,0,0,0,260,235Z"/><path class="cls-13" d="M262.62,283.35a32.82,32.82,0,0,1,0,3.29s-.13,4-6.75,4-7.14-3.23-7.14-3.23,0-7.31-.34-7.57h14.23Z"/><path class="cls-19" d="M262.52,232.39A2.53,2.53,0,0,1,260,235a2.74,2.74,0,0,1-2.62-2.68,2.57,2.57,0,0,1,2.65-2.45A2.39,2.39,0,0,1,262.52,232.39Z"/><path class="cls-13" d="M249.6,237.3a10.2,10.2,0,1,1-10.24,10.16A10.25,10.25,0,0,1,249.6,237.3Zm7.47,10.25a7.51,7.51,0,1,0-7.62,7.42A7.43,7.43,0,0,0,257.07,247.55Z"/><path class="cls-13" d="M259.64,201.92c.31,3.9-1.45,7.13-6.37,7.15-8.15,0-16.3,0-24.45,0h-53.6c-4.12-.07-6.46-2.39-6.34-6.47.08-2.52.43-5,.65-7.55q.51-5.62,1-11.25a18.62,18.62,0,0,1,.44-3,7.14,7.14,0,0,1,7-5c4.2-.09,8.38,0,12.57,0h58.58a10.34,10.34,0,0,1,4.69.86,6.78,6.78,0,0,1,4,5.85C258.43,189,259.1,195.43,259.64,201.92Zm-2.61,1.5a14.39,14.39,0,0,0-.09-2.62c-.21-2.27-.49-4.55-.71-6.83-.37-3.8-.69-7.59-1.07-11.39a4.27,4.27,0,0,0-3.7-4,10.64,10.64,0,0,0-2.32-.25q-15.94,0-31.91,0c-.48,0-1,.06-1.55.1v28h38.19A3,3,0,0,0,257,203.42Zm-44.1,3V178.35c-.58,0-1-.07-1.48-.07H179.53a11.31,11.31,0,0,0-1.92.16c-2.86.45-4.15,1.93-4.38,4.79-.3,3.75-.67,7.5-1,11.25-.25,2.6-.6,5.2-.77,7.81s.9,4.32,3.84,4.13h37.66Z"/><path class="cls-19" d="M249.76,240a7.49,7.49,0,1,1-7.7,7.48A7.43,7.43,0,0,1,249.76,240Z"/><path class="cls-19" d="M257.07,267.51H242.42V264.7a3.81,3.81,0,0,1,.78-.18c3.63,0,7.27,0,10.89,0C256,264.56,256.84,265.4,257.07,267.51Z"/><path class="cls-19" d="M239.63,265.45c.05,2.16,0,4.33,0,6.49s0,4.23,0,6.35a3.17,3.17,0,0,1-5.27,2.38,3.08,3.08,0,0,1-1.11-2.44c0-4.27,0-8.55,0-12.83a3.19,3.19,0,1,1,6.37.05Z"/><path class="cls-21" d="M230.44,270.43v6.2H198v-6.2Z"/><path class="cls-19" d="M230.4,264.65v2.85h-3.08v-2.85Z"/><path class="cls-13" d="M225.85,224.9a11.79,11.79,0,1,1-11.76-11.76A11.68,11.68,0,0,1,225.85,224.9Zm-2.53.09A9.26,9.26,0,1,0,214,234.2,9.33,9.33,0,0,0,223.32,225Z"/><path class="cls-19" d="M224.25,258.44v8.76H204.41v-8.76Zm-4.52,6.12a1.53,1.53,0,0,0,1.33-1.47,1.39,1.39,0,1,0-2.78.17A1.36,1.36,0,0,0,219.73,264.56Zm-5.55,0a1.52,1.52,0,0,0,1.36-1.45,1.46,1.46,0,0,0-1.39-1.41,1.43,1.43,0,0,0-1.39,1.53A1.35,1.35,0,0,0,214.18,264.56Zm-4.17-1.4a1.47,1.47,0,0,0-1.34-1.46,1.44,1.44,0,0,0-1.44,1.49,1.33,1.33,0,0,0,1.37,1.37A1.52,1.52,0,0,0,210,263.16Z"/><path class="cls-19" d="M214.08,215.73a9.24,9.24,0,1,1-9.28,9.2A9.33,9.33,0,0,1,214.08,215.73Z"/><path class="cls-13" d="M221.06,263.09a1.53,1.53,0,0,1-1.33,1.47,1.36,1.36,0,0,1-1.45-1.3,1.39,1.39,0,1,1,2.78-.17Z"/><path class="cls-13" d="M215.54,263.11a1.52,1.52,0,0,1-1.36,1.45,1.35,1.35,0,0,1-1.42-1.33,1.43,1.43,0,0,1,1.39-1.53A1.46,1.46,0,0,1,215.54,263.11Z"/><path class="cls-21" d="M209.74,255.5h-3.25c-1.1,0-2.2,0-3.31,0-1.32,0-1.73.42-1.76,1.74s0,2.92,0,4.59c-1.5,0-2.86,0-4.21,0a1.84,1.84,0,0,1-.9-.55,5.86,5.86,0,0,0-8.24-.11,2.56,2.56,0,0,1-1.87.65h-11c-3.9,0-5.56,1.32-6.54,5.14,0,.17-.09.35-.15.58a6.53,6.53,0,0,1-7.44-5.71,18.86,18.86,0,0,1-.13-2.61q.13-14.69.29-29.36c0-2.06.13-4.13.21-6.2,0-.36.08-.71.14-1.24,1.94.26,3.8.47,5.63.8a63.61,63.61,0,0,1,24.41,9.41,45.82,45.82,0,0,1,17.51,21.12C209.29,254.24,209.47,254.76,209.74,255.5ZM189,247.55a10.21,10.21,0,1,0-10.26,10.14A10.24,10.24,0,0,0,189,247.55Zm-20.29-9.73a5.45,5.45,0,1,0-.18-10.89,5.44,5.44,0,0,0-5.35,5.52A5.49,5.49,0,0,0,168.72,237.82Z"/><path class="cls-13" d="M208.67,261.7a1.47,1.47,0,0,1,1.34,1.46,1.52,1.52,0,0,1-1.41,1.4,1.33,1.33,0,0,1-1.37-1.37A1.44,1.44,0,0,1,208.67,261.7Z"/><path class="cls-19" d="M201.27,264.68v2.86h-3.12c-.06-1-.1-1.89-.14-2.86Z"/><path class="cls-19" d="M195.32,266.43q0,5.51,0,11a7.41,7.41,0,0,1-.19,1.63,3.15,3.15,0,0,1-3.3,2.37,3,3,0,0,1-2.87-2.83c-.09-2.29,0-4.59,0-6.89h0c0-1.94,0-3.86,0-5.8a5.81,5.81,0,0,1,.25-1.76,3.14,3.14,0,0,1,6,.33A8.24,8.24,0,0,1,195.32,266.43Z"/><path class="cls-13" d="M178.87,237.29a10.2,10.2,0,1,1-10.28,10.13A10.24,10.24,0,0,1,178.87,237.29Zm7.44,10.24a7.51,7.51,0,1,0-7.46,7.45A7.44,7.44,0,0,0,186.31,247.53Z"/><path class="cls-21" d="M186.22,270.43v6.22c-.48,0-.92.1-1.36.1l-21.67,0c-2,0-2.36-.35-2.39-2.43,0-.81,0-1.64,0-2.47a1.38,1.38,0,0,1,1.46-1.48c.14,0,.28,0,.41,0q11.25,0,22.5,0C185.49,270.35,185.8,270.4,186.22,270.43Z"/><path class="cls-19" d="M186.13,264.57v2.95H171.52c.21-1.89.93-2.91,2.39-2.93C178,264.51,182,264.57,186.13,264.57Z"/><path class="cls-19" d="M178.83,240a7.5,7.5,0,1,1-7.53,7.5A7.44,7.44,0,0,1,178.83,240Z"/><path class="cls-13" d="M179.38,279.81v6.83s-.14,4-6.75,4-7.49-3.23-7.49-3.23.19-7.45,0-7.57Z"/><path class="cls-13" d="M174.09,232.27a5.45,5.45,0,1,1-10.9.18,5.45,5.45,0,0,1,10.9-.18Zm-2.84.17a2.57,2.57,0,0,0-2.6-2.6,2.4,2.4,0,0,0-2.54,2.46,2.56,2.56,0,0,0,2.54,2.67A2.75,2.75,0,0,0,171.25,232.44Z"/><path class="cls-19" d="M168.65,229.84a2.57,2.57,0,0,1,2.6,2.6,2.75,2.75,0,0,1-2.6,2.53,2.56,2.56,0,0,1-2.54-2.67A2.4,2.4,0,0,1,168.65,229.84Z"/><path class="cls-19" d="M155,192.35c0,1.33,0,2.67,0,4h0c0,1.24,0,2.49,0,3.72,0,1.39-.36,1.74-1.7,1.79-1.11,0-2.21,0-3.32,0s-1.51-.45-1.54-1.53c0-2.67,0-5.33,0-8,0-1.11.41-1.49,1.52-1.53s2.39,0,3.58,0S155,191.24,155,192.35Z"/><circle class="cls-22" cx="214.14" cy="197.4" r="115.23"/></svg>