<svg id="Layer_1" data-name="Layer 1" xmlns="http://www.w3.org/2000/svg" viewBox="0 0 411.67 411.67"><defs><style>.cls-1{fill:#231f20;}.cls-13,.cls-2{fill:#414042;}.cls-10,.cls-12,.cls-15,.cls-16,.cls-18,.cls-2,.cls-7,.cls-8,.cls-9{stroke:#414042;}.cls-10,.cls-15,.cls-16,.cls-18,.cls-2,.cls-22,.cls-3,.cls-4,.cls-7,.cls-8,.cls-9{stroke-linecap:round;stroke-linejoin:round;}.cls-2,.cls-22,.cls-9{stroke-width:4.8px;}.cls-10,.cls-12,.cls-16,.cls-18,.cls-22,.cls-3,.cls-4,.cls-8{fill:none;}.cls-3,.cls-4{stroke:#f4784c;stroke-width:6px;}.cls-4{stroke-dasharray:0.99 15.77;}.cls-5{fill:#dff3fb;}.cls-6{fill:#536853;}.cls-15,.cls-19,.cls-7,.cls-9{fill:#ebebec;}.cls-7,.cls-8{stroke-width:1.56px;}.cls-10{stroke-width:1.92px;}.cls-11{fill:#f3704b;}.cls-12{stroke-miterlimit:10;stroke-width:2px;}.cls-14{fill:#456885;}.cls-15,.cls-16{stroke-width:1.21px;}.cls-17{fill:#ecca67;}.cls-18{stroke-width:1.39px;}.cls-20{fill:#a7a9ac;}.cls-21{fill:#bce6f9;}.cls-22{stroke:#fff;}</style></defs><circle class="cls-1" cx="205.27" cy="205.83" r="178.03"/><circle class="cls-2" cx="205.83" cy="209.8" r="115.23"/><path class="cls-3" d="M332,153.62l.21.45"/><path class="cls-4" d="M337.94,168.74a139.61,139.61,0,1,1-262.83-3.85c.21-.44,2-4.31,4.58-9.16"/><path class="cls-3" d="M83.51,148.83l.25-.42"/><path class="cls-5" d="M100.07,164.35S124.6,95,210.47,95c0,0,55.73-5.33,94.93,58.93l-34.66,20.8L223,156.62l-5.06-.53-26.14,9.06h-3.73l-46-20.8L135.8,143l-6.28,2.81L105.4,162.75Z"/><path class="cls-6" d="M90.47,205.69H321.4S315.54,325,205.83,325C93.09,325,90.47,205.69,90.47,205.69Z"/><polygon class="cls-7" points="268.14 266.58 281.51 230.26 294.89 266.58 268.14 266.58"/><line class="cls-8" x1="281.11" y1="248.99" x2="278.02" y2="245.9"/><line class="cls-8" x1="281.11" y1="257.01" x2="276.15" y2="252.04"/><line class="cls-8" x1="281.11" y1="265.03" x2="274.28" y2="258.19"/><line class="cls-8" x1="285.04" y1="245.9" x2="281.95" y2="248.99"/><line class="cls-8" x1="286.91" y1="252.04" x2="281.95" y2="257.01"/><line class="cls-8" x1="288.79" y1="258.19" x2="281.95" y2="265.03"/><line class="cls-8" x1="281.51" y1="241.47" x2="281.51" y2="274.23"/><path class="cls-9" d="M136.75,303.19l49.6-76.4h34l48.4,78.8s-17.6,20-61.6,20S136.75,303.19,136.75,303.19Z"/><polyline class="cls-10" points="321.06 205.84 279.07 205.84 241.91 205.84 164.62 205.84 155.02 205.84 146.84 205.84 110.31 205.84 90.61 205.84"/><path class="cls-11" d="M86,103.48c3.44-4.09,13.82-13.66,20-5.12,4,5.51,1.17,12.73-2.24,18.23,0,0,5.75-.2,8.64-3.64a6.4,6.4,0,0,0,1-1.68c.83-1.92,5.49,4.42.19,9.11-3.13,2.79-12.82.46-12.82.46v-.07a11.72,11.72,0,0,1-.77,1c2.34,4.24,4.17,6,4.2,6s1.72-.06-1.1,2.86c-3.46,3.56-7,0-10.2-7.07a101.7,101.7,0,0,1-4.53-13,2.45,2.45,0,0,1,.77-2.1c1.47-1.76,4.54-3.3,4.91-1.94a98.31,98.31,0,0,0,4.52,12.35c10.41-10.84-.72-24.7-10-13.68-7.75,9.23-3.52,15.33-1.49,16.77.3.19-.52,1.92-1.77,3.41a7.57,7.57,0,0,1-2.39,2c-2.91,1.34-5.93-.22-5.89-6.06S81.79,108.46,86,103.48Z"/><path class="cls-11" d="M107.37,87.6a3.48,3.48,0,1,1,4.82.36A3.4,3.4,0,0,1,107.37,87.6Zm17.8,6.75c2.48,5.09,4.5,13.56-2.24,18C114.41,117.93,110,99,108.84,94.44A2.66,2.66,0,0,1,110.09,92c1.86-1.52,5-2.36,5.35-.88,1.06,4,3.64,14.08,6.47,11.77,2.55-2.09,1.84-6.66,1.12-9.2C124.33,92.7,125.17,94.35,125.17,94.35Z"/><path class="cls-11" d="M150.59,80.15c1.45,5.14,1.89,12.41-5.4,15.7-3.63,1.72-5.95.24-7.5-2.61-.37,3.62-1.83,7.16-5.33,9.21-8.88,5.2-15.12-15.23-4.08-21.7,1.16-.68,3.84-2,6-1.27-.36-2.68-.83-6-1.38-10.54-.08-.83.63-1.61,1.66-2.22,2-1.18,5.25-1.63,5.34-.18a106.34,106.34,0,0,0,2.53,16.36c.8,3.25,1.86,5.16,3.5,4.19,2.84-1.66,2.88-5.35,2.69-7.87C150.12,78.47,150.59,80.15,150.59,80.15Zm-15,7.12c-.08-.32-.08-.73-.18-1.19a3.67,3.67,0,0,0-.1-.76c-.43-1.82-1.27-3.85-3-3.18-5.28,2.06-4.06,16.3,1.07,13.29C136.13,93.84,135.83,89.27,135.64,87.27Z"/><path class="cls-11" d="M171.18,72.74C171.43,75,171,85.9,162.06,89c-4.72,1.65-12.79,1.16-12.25-11.06.1-1.7,1-10.38,7.39-12.61,3-1,6.28-.69,7.76,3.52,1.38,4-.65,7.07-4.57,8.45a8,8,0,0,1-3.63.51c-.06,3,2.28,5.6,6.57,4.09,3.92-1.37,5.32-5.69,5.81-10.64C169.15,71.18,170.9,70.57,171.18,72.74Zm-14.37,2.67a7.4,7.4,0,0,0,2.72-.4c4.58-1.6,3.13-7.54.91-6.76C158.56,68.91,157.27,71.88,156.81,75.41Z"/><path class="cls-11" d="M221,60.38c-2.63,10.31-6.4,21.53-16.71,20.89-3.25-.23-4.83-2.2-5.38-4.9-2.1,3.12-5.26,5.5-9.81,5.15-10.17-.93-4-18.47-2-22.77a2.62,2.62,0,0,1,2.53-1.19c2.35,0,5.32,1.25,4.7,2.64-1.69,3.78-3.84,13.27-.19,13.21,1.95,0,3.58-1.39,4.75-3a51,51,0,0,1,3.41-11.89,2.16,2.16,0,0,1,2-1.17c1.75,0,3.82,1.26,3.19,2.65-1.68,3.78-3.83,13.27-.18,13.21,4.9-.07,7.18-10.52,8.76-14.82.19-.57.84-.58,1.24-.59C218.92,57.75,221.62,58.23,221,60.38Z"/><path class="cls-11" d="M236.85,72.72c-2.12,4.94-7.07,11.66-14.84,9.57-9.86-2.62,1.25-17.53,3.88-21.21a2.71,2.71,0,0,1,2.69-.65c2.37.39,5.07,2.11,4.22,3.29-2.25,3.23-8,11.36-4.44,12,3.26.53,6.19-2.82,7.6-4.92C237.52,71.1,236.85,72.72,236.85,72.72ZM230,55.78a3.49,3.49,0,1,1,2.94,3.67A3.31,3.31,0,0,1,230,55.78Z"/><path class="cls-11" d="M251.83,77.08c-2.72,4.66-7.68,10-15.11,7.08-5.93-2.33-3.76-8,0-13.2,1.33-2,2.69-3.82,4.46-6.21l-2.79-.8c-1.34-.38-.26-2.36,1.86-1.76l2.35.67c1.4-1.81,3.07-3.86,5.22-6.48.54-.64,1.59-.67,2.7-.35,2.26.64,4.85,2.68,3.87,3.76-.62.71-2.29,2.58-4.34,5.22l1.49.43c2.21.62.8,2.47-.69,2l-2.21-.63c-1.41,1.84-2.89,4-4.32,6.26-1.8,2.85-2.5,4.95-.67,5.47,3.17.9,5.87-1.66,7.56-3.57C252.73,75.56,251.83,77.08,251.83,77.08Z"/><path class="cls-11" d="M280,90.07c-3.44,4.14-10.13,9.16-16.94,5-5.79-3.54-2.17-8.53,2.9-13.64,1.42-1.46,2.12-3,.6-3.8-3.74-1.9-7.69,1.59-9,2.83-3,3.72-3.9,5.81-3.86,5.83s.41,2.39-3.38.57c-7.07-3.4,2.12-13.86,15.39-24.5.65-.54,1.73-.37,2.77.13,2.12,1,4.23,3.43,3.12,4.35a105.16,105.16,0,0,0-9.29,8.36c3.11-1,6.51-1.42,9.49.22,5.18,2.84,4.19,6.76,1,9.71-1,1-4.51,4.08-1.81,5.38,3,1.43,6.69-1,8.67-2.58C281.12,88.7,280,90.07,280,90.07Z"/><path class="cls-11" d="M313.93,119.36c-4.37,2.76-11.2,5.32-15.93.72-2.57-2.52-3.34-5.39-1.1-8.32-4.06,1.08-8.48.82-11.77-3.12-6.46-7.76,11.83-14.27,16.21-16a2.69,2.69,0,0,1,2.62,1c1.72,1.67,2.9,4.69,1.48,5.22-3.91,1.43-13.59,5.19-11,7.74,2.33,2.27,6.66,1.12,9.17.19a51.15,51.15,0,0,1,7.43-3.1,2.66,2.66,0,0,1,2.62,1c1.72,1.68,2.9,4.69,1.48,5.22s-4,1.53-6.25,2.6c-2.42,1.35-4.2,2.81-2.84,4.13,2.37,2.31,5.89,1.56,8.33.56C315.51,118.31,313.93,119.36,313.93,119.36Z"/><path class="cls-11" d="M326,122.13c-1-1.37-3.64-3.1-5.62-3.07-6.88.34,2.87,11.35-5.59,14.84-4.46,1.8-8.95-.06-11.7-3.8-3.7-5-1.64-7.61.84-8.88a5.22,5.22,0,0,1,6.19.72c.92,1.25-5.26.22-1.86,4.85,1.48,2,2.8,2.6,4,2,3.75-1.95-3.63-11.42,2.7-14.77,2.12-1.12,8.87-2.92,15.27,5.78,7,9.46-7.28,10.62-8.89,8s.82-4.89,1.5-3.65S328.39,125.35,326,122.13Z"/><path class="cls-10" d="M306.64,152.06l-9.12,6-9.6,6.32-8.41,5.54-5.79,3.68a8.14,8.14,0,0,1-7.44.68l-6.55-2.64-29.51-12.77c-5.75-2.49-12.18-3.82-17.75-.94L195,164.25c-5.55,2.86-11.7.09-18.21-3.1l-34.67-16.8a10.89,10.89,0,0,0-8.53-.15l-4,1.63c-.41.16-33.5,23.76-33.5,23.76"/><path class="cls-12" d="M301.87,143.75H262.25a12,12,0,0,1,11.18-7.46s2.42-13.27,10.82-12.87"/><path class="cls-12" d="M130.4,120.34a14.62,14.62,0,0,1,11.87,4s15.89-.48,15.89,8.8H122.42"/><path class="cls-10" d="M205.83,325a114.76,114.76,0,0,0,63.65-19.16l-61.4-96.09-5.65,0-5.64,0-59.3,92.8A114.7,114.7,0,0,0,205.83,325Z"/><polygon class="cls-13" points="201.47 325.03 200.5 313.03 204.36 313.03 203.39 325.03 201.47 325.03"/><polygon class="cls-13" points="199.91 305.64 198.25 285.09 206.62 285.09 204.96 305.64 199.91 305.64"/><polygon class="cls-13" points="197.65 277.69 195.99 257.14 208.88 257.14 207.22 277.69 197.65 277.69"/><polygon class="cls-13" points="195.39 249.75 193.73 229.2 211.13 229.2 209.47 249.75 195.39 249.75"/><polygon class="cls-13" points="193.13 221.8 192.16 209.8 212.7 209.8 211.73 221.8 193.13 221.8"/><path class="cls-14" d="M232.72,219.85c0,.41-1.31.74-2.93.74s-2.92-.33-2.92-.74,1.31-.74,2.92-.74S232.72,219.44,232.72,219.85Z"/><path class="cls-14" d="M240.07,221.31c0,.33-1,.6-2.17.6s-2.17-.27-2.17-.6,1-.6,2.17-.6S240.07,221,240.07,221.31Z"/><path class="cls-14" d="M166.25,230.87c0,.36-1,.64-2.33.64s-2.33-.28-2.33-.64,1-.64,2.33-.64S166.25,230.52,166.25,230.87Z"/><path class="cls-14" d="M302.24,218.1c0,.33-1,.6-2.17.6s-2.17-.27-2.17-.6,1-.59,2.17-.59S302.24,217.77,302.24,218.1Z"/><path class="cls-14" d="M178.19,216.39c0,.51-1.37.92-3.06.92s-3.06-.41-3.06-.92,1.37-.93,3.06-.93S178.19,215.87,178.19,216.39Z"/><path class="cls-14" d="M250.28,242.05c0,.37-.75.68-1.69.68s-1.69-.31-1.69-.68.76-.67,1.69-.67S250.28,241.68,250.28,242.05Z"/><polygon class="cls-15" points="102.41 218.74 112.76 190.62 123.11 218.74 102.41 218.74"/><line class="cls-16" x1="112.45" y1="205.12" x2="110.06" y2="202.73"/><line class="cls-16" x1="112.45" y1="211.33" x2="108.61" y2="207.49"/><line class="cls-16" x1="112.45" y1="217.54" x2="107.16" y2="212.24"/><line class="cls-16" x1="115.49" y1="202.73" x2="113.1" y2="205.12"/><line class="cls-16" x1="116.94" y1="207.49" x2="113.1" y2="211.33"/><line class="cls-16" x1="118.39" y1="212.24" x2="113.1" y2="217.54"/><line class="cls-16" x1="112.76" y1="199.3" x2="112.76" y2="224.66"/><polygon class="cls-7" points="118.59 245.81 131.96 209.49 145.33 245.81 118.59 245.81"/><line class="cls-8" x1="131.56" y1="228.22" x2="128.47" y2="225.13"/><line class="cls-8" x1="131.56" y1="236.24" x2="126.6" y2="231.28"/><line class="cls-8" x1="131.56" y1="244.26" x2="124.72" y2="237.42"/><line class="cls-8" x1="135.49" y1="225.13" x2="132.4" y2="228.22"/><line class="cls-8" x1="137.36" y1="231.28" x2="132.4" y2="236.24"/><line class="cls-8" x1="139.24" y1="237.42" x2="132.4" y2="244.26"/><line class="cls-8" x1="131.96" y1="220.7" x2="131.96" y2="253.46"/><path class="cls-17" d="M179.35,151.62h49s-5-21-24-21C180.37,130.66,179.35,151.62,179.35,151.62Z"/><path class="cls-13" d="M182.08,155H182a.81.81,0,0,1-.72-.91,25.14,25.14,0,0,1,49.92-.1.82.82,0,0,1-.72.92.83.83,0,0,1-.92-.72,23.49,23.49,0,0,0-43.74-8.77,23.56,23.56,0,0,0-2.91,8.86A.82.82,0,0,1,182.08,155Z"/><path class="cls-13" d="M233.6,152.72a.82.82,0,0,1-.14-1.63l17-3a.82.82,0,1,1,.28,1.62l-17,3Z"/><path class="cls-13" d="M232.3,148a.83.83,0,0,1-.28-1.6l16.2-5.89a.82.82,0,1,1,.56,1.54l-16.2,5.9A.92.92,0,0,1,232.3,148Z"/><path class="cls-13" d="M230.19,143.54a.83.83,0,0,1-.71-.41.82.82,0,0,1,.3-1.12l14.93-8.62a.82.82,0,1,1,.82,1.42l-14.93,8.62A.87.87,0,0,1,230.19,143.54Z"/><path class="cls-13" d="M227.34,139.53a.82.82,0,0,1-.52-1.45L240,127a.82.82,0,0,1,1.06,1.26l-13.21,11.08A.8.8,0,0,1,227.34,139.53Z"/><path class="cls-13" d="M223.84,136.08a.8.8,0,0,1-.52-.19.81.81,0,0,1-.1-1.16l11.08-13.21a.82.82,0,0,1,1.26,1.06l-11.09,13.21A.82.82,0,0,1,223.84,136.08Z"/><path class="cls-13" d="M219.8,133.29a.87.87,0,0,1-.41-.11.82.82,0,0,1-.3-1.12l8.62-14.93a.81.81,0,0,1,1.12-.3.82.82,0,0,1,.3,1.12l-8.62,14.93A.83.83,0,0,1,219.8,133.29Z"/><path class="cls-13" d="M215.33,131.24a.69.69,0,0,1-.28-.05.81.81,0,0,1-.49-1.05l5.89-16.2a.82.82,0,0,1,1.06-.49.81.81,0,0,1,.49,1l-5.9,16.2A.8.8,0,0,1,215.33,131.24Z"/><path class="cls-13" d="M210.58,130h-.15a.83.83,0,0,1-.67-1l3-17a.82.82,0,0,1,1-.67.83.83,0,0,1,.67,1l-3,17A.81.81,0,0,1,210.58,130Z"/><path class="cls-13" d="M205.67,129.61a.82.82,0,0,1-.82-.82V111.55a.83.83,0,1,1,1.65,0v17.24A.83.83,0,0,1,205.67,129.61Z"/><path class="cls-13" d="M200.78,130.07a.82.82,0,0,1-.81-.68l-3-17a.82.82,0,1,1,1.62-.28l3,17a.83.83,0,0,1-.66,1Z"/><path class="cls-13" d="M196,131.37a.81.81,0,0,1-.77-.54l-5.9-16.2a.83.83,0,0,1,.5-1,.82.82,0,0,1,1,.49l5.9,16.2a.84.84,0,0,1-.5,1.06A.86.86,0,0,1,196,131.37Z"/><path class="cls-13" d="M191.6,133.48a.81.81,0,0,1-.71-.41l-8.62-14.93a.82.82,0,0,1,.3-1.12.83.83,0,0,1,1.13.3l8.61,14.93a.81.81,0,0,1-.3,1.12A.77.77,0,0,1,191.6,133.48Z"/><path class="cls-13" d="M187.6,136.33A.82.82,0,0,1,187,136l-11.08-13.21a.82.82,0,1,1,1.25-1.06L188.23,135a.82.82,0,0,1-.63,1.35Z"/><path class="cls-13" d="M184.14,139.83a.9.9,0,0,1-.53-.19l-13.2-11.09a.81.81,0,0,1-.1-1.15.82.82,0,0,1,1.16-.11l13.2,11.09a.8.8,0,0,1,.1,1.15A.8.8,0,0,1,184.14,139.83Z"/><path class="cls-13" d="M181.35,143.87a.77.77,0,0,1-.41-.11L166,135.14a.82.82,0,1,1,.82-1.42l14.93,8.62a.81.81,0,0,1,.3,1.12A.79.79,0,0,1,181.35,143.87Z"/><path class="cls-13" d="M179.31,148.34a.66.66,0,0,1-.28-.05l-16.2-5.89a.82.82,0,1,1,.56-1.55l16.2,5.9a.82.82,0,0,1,.49,1.05A.81.81,0,0,1,179.31,148.34Z"/><path class="cls-13" d="M178.07,153.1h-.15l-17-3a.82.82,0,0,1,.28-1.62l17,3a.82.82,0,0,1-.14,1.63Z"/><polygon class="cls-7" points="281.48 221.82 293.37 189.52 305.26 221.82 281.48 221.82"/><line class="cls-18" x1="293.01" y1="206.18" x2="290.26" y2="203.43"/><line class="cls-18" x1="293.01" y1="213.31" x2="288.6" y2="208.89"/><line class="cls-18" x1="293.01" y1="220.44" x2="286.93" y2="214.35"/><line class="cls-18" x1="296.5" y1="203.43" x2="293.75" y2="206.18"/><line class="cls-18" x1="298.17" y1="208.89" x2="293.75" y2="213.31"/><line class="cls-18" x1="299.83" y1="214.35" x2="293.75" y2="220.44"/><line class="cls-18" x1="293.37" y1="199.49" x2="293.37" y2="228.62"/><path class="cls-19" d="M155.28,186.06l-4.74,49.05,52.26,38.53,20.32-11.16L251.74,237l8-9.45-3.15-38.92s-1.14-8.31-22.32-10.59S165.3,175.76,155.28,186.06Z"/><path class="cls-20" d="M163.37,208.85a15.29,15.29,0,0,0-.17,3,8.69,8.69,0,0,0,.52,2.79,3.9,3.9,0,0,0,1.48,1.94,4.33,4.33,0,0,0,2.28.63h.64l.67-.05,1.54-.1,3-.2c2-.14,4-.23,6.07-.33q12.15-.56,24.28-.59t24.28.38c4,.17,8.09.34,12.13.6l1.49.07.37,0c.1,0,0,0,0,0l0,0,0,0,.19,0a1.41,1.41,0,0,1,.27,0h.4l.39,0a8.06,8.06,0,0,0,2.58-.11,2.67,2.67,0,0,0,1.76-1.32,5.41,5.41,0,0,0,.61-2.61v-.06c.18-1.44.37-2.87.59-4.31.15,1.45.29,2.89.4,4.33v-.06a6.85,6.85,0,0,1,0,3.36,4.64,4.64,0,0,1-2.49,2.76,9.31,9.31,0,0,1-3.38.81l-.37,0-.14,0s0,0,0,0h.08l.1,0-.11,0-.24,0c-.15,0-.36,0-.38.05l-.4,0-1.53.13c-4.06.34-8.11.53-12.16.72-8.1.34-16.19.47-24.29.45s-16.19-.21-24.28-.59c-2-.11-4.05-.2-6.07-.34l-3-.21-1.5-.1L168,220c-.29,0-.58-.08-.87-.14a6.68,6.68,0,0,1-3.26-1.65,5.44,5.44,0,0,1-1.59-3.18A11.15,11.15,0,0,1,163.37,208.85Z"/><path class="cls-21" d="M153.42,227.54s49.38,3.45,51.67,41.81c0,0,4.65-38.07,53.3-41.51l.22,44.94-49,4.58-31.77-4.86L157,269.35Z"/><path class="cls-13" d="M274.12,204.38c0,2.8,0,5.61,0,8.41,0,2.47-1.25,3.79-3.74,4.06a8.33,8.33,0,0,0-.84.18c0,.87,0,1.73,0,2.61-.11,3-1.69,4.54-4.69,4.6-1.27,0-2.56,0-3.95,0,0,.84,0,1.56,0,2.28.24,5.33.57,10.65.72,16,.18,7.23.23,14.44.31,21.66,0,2.76,0,5.52,0,8.28a10.2,10.2,0,0,1-2.55,7.36,1.67,1.67,0,0,0-.19.42c2.38.92,3.17,2.77,3,5.16-.05.79,0,1.57,0,2.35a4,4,0,0,1-3.56,3.94c-.31.06-.61.15-1.07.25,0,1.93,0,3.86,0,5.77a9.67,9.67,0,0,1-.18,2.47c-.78,2.92-2.61,5-5.67,5.28a45.72,45.72,0,0,1-9.21-.05,6.47,6.47,0,0,1-5.65-6.49c-.08-2.29,0-4.59,0-7h-2.88c-.93,2.86-2.86,4.73-6,4.62-2.89-.09-4.7-1.84-5.55-4.66H189.59c-.9,2.86-2.78,4.67-5.8,4.67s-4.9-1.81-5.78-4.67h-3.44c0,2,0,3.94,0,5.86a11.91,11.91,0,0,1-.4,3,6.92,6.92,0,0,1-6.6,5c-2.3.06-4.61.07-6.91,0a7.12,7.12,0,0,1-6.95-7.28c0-2.16,0-4.31,0-6.5l-.87-.27a4,4,0,0,1-3-3.75,23.81,23.81,0,0,1,0-3.87,4.25,4.25,0,0,1,2.93-3.72c-.31-.4-.56-.71-.8-1a8.53,8.53,0,0,1-1.93-5.34c.07-10.29.12-20.59.22-30.89,0-2.62.17-5.25.27-7.86.13-3.25.26-6.49.4-9.74,0-.31,0-.62,0-1.12h-2.66c-.68,0-1.38,0-2.07,0a4.25,4.25,0,0,1-4.12-4.48c0-.91,0-1.82,0-2.64-.25-.13-.32-.21-.4-.21-2.67,0-4.27-1.72-4.15-4.52.1-2.48,0-5,0-7.45,0-2.94,1.41-4.3,4.32-4.32h3.18c2.67,0,4.13,1.41,4.16,4s0,5.52,0,8.27c0,2.4-1.29,3.71-3.71,3.93-.17,0-.35,0-.73.09,0,1.13-.06,2.25,0,3.37a1.34,1.34,0,0,0,1.41,1.26c1.24,0,2.49,0,3.73,0,.37,0,.72,0,1.19-.05.19-2.44.37-4.8.57-7.17q.66-7.83,1.36-15.65c.28-3.11.54-6.22.92-9.32a8.74,8.74,0,0,1,5-7,52.2,52.2,0,0,1,12.08-4.17,123.88,123.88,0,0,1,18-2.79,189.28,189.28,0,0,1,27.87-.46c9.84.54,19.61,1.66,29.07,4.63a51.23,51.23,0,0,1,6.77,2.68,8.51,8.51,0,0,1,5.11,7.58c.26,3.85.86,7.67,1.24,11.5.35,3.67.63,7.33.91,11,.24,3,.44,6,.67,9.2,1.65,0,3.12,0,4.59,0A1.53,1.53,0,0,0,267,220c.07-.95,0-1.92,0-3-.46-.07-.86-.12-1.26-.16a3.54,3.54,0,0,1-3.15-2.84,12,12,0,0,1-.19-2.32c0-2.16,0-4.33,0-6.48-.08-3.42,2.14-4.78,4.54-4.59,1.16.08,2.32,0,3.47,0A3.68,3.68,0,0,1,274.12,204.38Zm-2.61,8.54c0-2.71.07-5.42.05-8.13,0-1.23-.37-1.55-1.59-1.58s-2.2,0-3.31,0c-1.31,0-1.64.34-1.66,1.64s0,2.57,0,3.86h0c0,1.33,0,2.66,0,4,0,1.13.38,1.5,1.5,1.55s2.39,0,3.58,0A1.25,1.25,0,0,0,271.51,212.92Zm-12,74.51c0-.78,0-1.56,0-2.34,0-2-.3-2.33-2.28-2.34H235.48c-.45,0-.89,0-1.41.07v6.22c.54,0,.9.08,1.26.08h22.48C259,289.05,259.47,288.6,259.53,287.43Zm-.32-13.86c.14-12.59.06-25.19-.5-37.77a6.63,6.63,0,0,0-.18-1c-1.27.15-2.46.28-3.64.46a64.67,64.67,0,0,0-25.06,8.83A46,46,0,0,0,211,266c-.24.57-.45,1.16-.74,1.91,2.38,0,4.54,0,6.71,0,1.44,0,1.9.46,1.91,1.88s0,2.84,0,4.46c1.32,0,2.41,0,3.51,0a2.19,2.19,0,0,0,1.7-.67,5.74,5.74,0,0,1,8-.1,2.68,2.68,0,0,0,2,.72q5.73,0,11.46,0c3.35,0,5.23,1.5,6,4.71.09.34.22.69.31,1A6.45,6.45,0,0,0,259.21,273.57Zm-.64-41.46c0-.44,0-.71,0-1-.32-5.69-.61-11.38-1-17.07-.23-3.62-.55-7.23-.9-10.85-.4-4.11-.85-8.22-1.3-12.33-.19-1.72-.27-3.54-1.73-4.79a11.27,11.27,0,0,0-2.73-1.81,71.1,71.1,0,0,0-6.85-2.5c-10.5-3.05-21.29-4.09-32.16-4.39a180.58,180.58,0,0,0-26.2,1,105.36,105.36,0,0,0-18.9,3.73,51.89,51.89,0,0,0-6.77,2.7,5.73,5.73,0,0,0-3.44,5.11c-.1,1.74-.39,3.47-.56,5.2-.54,5.45-1.12,10.88-1.56,16.32s-.75,10.73-1.07,16.1c-.08,1.49,0,3,0,4.49a1.58,1.58,0,0,0,.28.15,2,2,0,0,0,.54.1A69.7,69.7,0,0,1,178,239c12.3,6,21.22,15.17,26,28.12a6.85,6.85,0,0,0,.39.77h3c.21-.53.38-1,.56-1.46A48.21,48.21,0,0,1,222.61,246c8.89-7.24,19.22-11.21,30.41-13.15C254.82,232.58,256.65,232.38,258.57,232.11ZM254.32,299a32.62,32.62,0,0,0,0-3.28v-3.54H240.08c.39.25.34,7.56.34,7.56s.52,3.23,7.15,3.23S254.32,299,254.32,299Zm-20.2-19.12h14.64c-.23-2.12-1-3-3-3-3.63,0-7.27,0-10.9,0a3.17,3.17,0,0,0-.77.18Zm-2.78,4.42c0-2.16,0-4.32,0-6.48a3.19,3.19,0,1,0-6.37-.06c-.05,4.28,0,8.57,0,12.84a3,3,0,0,0,1.11,2.43,3,3,0,0,0,3.34.54,3,3,0,0,0,1.94-2.92C231.36,288.58,231.34,286.47,231.34,284.34ZM222.13,289v-6.19H189.69V289Zm0-9.12v-2.86H219v2.86Zm-6.15-.3v-8.77H196.1v8.77ZM198.18,267.9h3.26c-.28-.74-.46-1.26-.67-1.77A45.76,45.76,0,0,0,183.26,245a63.67,63.67,0,0,0-24.4-9.41c-1.84-.32-3.7-.53-5.63-.8-.07.53-.14.89-.15,1.24-.08,2.07-.19,4.14-.21,6.21q-.17,14.67-.29,29.36a18.94,18.94,0,0,0,.14,2.61,6.53,6.53,0,0,0,7.43,5.71c.07-.24.11-.41.16-.59,1-3.82,2.63-5.12,6.53-5.13h11a2.6,2.6,0,0,0,1.87-.65c2.55-2.25,5.66-2.17,8.25.11a1.77,1.77,0,0,0,.89.55c1.35,0,2.71,0,4.22,0,0-1.67,0-3.13,0-4.59s.43-1.7,1.76-1.74C196,267.89,197.08,267.91,198.18,267.9ZM193,280v-2.87H189.7c0,1,.09,1.87.14,2.87ZM187,289.86c0-3.67,0-7.36,0-11a7.66,7.66,0,0,0-.2-1.91,3.14,3.14,0,0,0-6-.33,5.76,5.76,0,0,0-.24,1.76c0,1.93,0,3.86,0,5.79h0c0,2.3-.07,4.6,0,6.89a3,3,0,0,0,2.88,2.84,3.15,3.15,0,0,0,3.29-2.37A6.94,6.94,0,0,0,187,289.86Zm-9.1-.81v-6.21c-.42,0-.73-.08-1-.08H154c-1,.09-1.42.51-1.46,1.47s0,1.66,0,2.48c0,2.08.35,2.42,2.39,2.42l21.67,0C177,289.15,177.43,289.09,177.92,289.05Zm-.1-9.12v-3c-4.14,0-8.18-.05-12.21,0-1.47,0-2.18,1-2.39,2.93ZM171.07,299v-6.82H156.83c.19.12,0,7.56,0,7.56s.87,3.23,7.49,3.23S171.07,299,171.07,299Zm-24.36-90.29c0-1.33,0-2.67,0-4,0-1.12-.42-1.51-1.52-1.54s-2.38,0-3.58,0-1.5.42-1.52,1.52q0,4,0,8c0,1.09.44,1.49,1.53,1.53s2.22,0,3.32,0c1.34,0,1.67-.4,1.71-1.78s0-2.49,0-3.73Z"/><path class="cls-19" d="M271.56,204.79c0,2.71,0,5.42-.05,8.13a1.25,1.25,0,0,1-1.41,1.34c-1.19,0-2.4,0-3.58,0s-1.47-.42-1.5-1.55c0-1.33,0-2.66,0-4h0c0-1.29,0-2.57,0-3.86s.35-1.61,1.66-1.64c1.11,0,2.21,0,3.31,0S271.55,203.56,271.56,204.79Z"/><path class="cls-21" d="M259.55,285.09c0,.78,0,1.56,0,2.34-.06,1.17-.53,1.62-1.72,1.7H235.33c-.36,0-.72,0-1.26-.08v-6.22c.52,0,1-.07,1.41-.07h21.79C259.25,282.76,259.55,283.06,259.55,285.09Z"/><path class="cls-21" d="M258.71,235.8c.56,12.58.64,25.18.5,37.77a6.45,6.45,0,0,1-7.35,6.32c-.09-.28-.22-.63-.31-1-.81-3.21-2.69-4.7-6-4.71q-5.73,0-11.46,0a2.68,2.68,0,0,1-2-.72,5.74,5.74,0,0,0-8,.1,2.19,2.19,0,0,1-1.7.67c-1.1,0-2.19,0-3.51,0,0-1.62,0-3,0-4.46s-.47-1.87-1.91-1.88c-2.17,0-4.33,0-6.71,0,.29-.75.5-1.34.74-1.91a46,46,0,0,1,18.86-21.87,64.67,64.67,0,0,1,25.06-8.83c1.18-.18,2.37-.31,3.64-.46A6.63,6.63,0,0,1,258.71,235.8Zm-1.61,9a5.35,5.35,0,0,0-5.36-5.47,5.44,5.44,0,1,0,5.36,5.47Zm-5.63,15.12a10.21,10.21,0,1,0-10.25,10.16A10.25,10.25,0,0,0,251.47,259.93Z"/><path class="cls-13" d="M251.74,239.34a5.35,5.35,0,0,1,5.36,5.47,5.42,5.42,0,0,1-5.45,5.41,5.44,5.44,0,1,1,.09-10.88Zm0,8a2.53,2.53,0,0,0,2.5-2.58,2.4,2.4,0,0,0-2.48-2.54,2.57,2.57,0,0,0-2.65,2.44A2.74,2.74,0,0,0,251.72,247.37Z"/><path class="cls-13" d="M254.32,295.76a32.62,32.62,0,0,1,0,3.28s-.14,4-6.75,4-7.15-3.23-7.15-3.23.05-7.31-.34-7.56h14.24Z"/><path class="cls-19" d="M254.22,244.79a2.53,2.53,0,0,1-2.5,2.58,2.74,2.74,0,0,1-2.63-2.68,2.57,2.57,0,0,1,2.65-2.44A2.4,2.4,0,0,1,254.22,244.79Z"/><path class="cls-13" d="M241.3,249.7a10.2,10.2,0,1,1-10.25,10.16A10.25,10.25,0,0,1,241.3,249.7ZM248.76,260a7.51,7.51,0,1,0-7.62,7.41A7.44,7.44,0,0,0,248.76,260Z"/><path class="cls-13" d="M251.33,214.33c.31,3.89-1.45,7.12-6.36,7.14-8.16.05-16.31,0-24.46,0h-52.9c-.23,0-.47,0-.7,0-4.11-.06-6.46-2.39-6.34-6.47.08-2.52.43-5,.65-7.54.35-3.75.68-7.5,1-11.25a17.54,17.54,0,0,1,.45-3,7.12,7.12,0,0,1,7-5c4.19-.09,8.37-.06,12.56-.06q29.3,0,58.58,0a10.31,10.31,0,0,1,4.69.86,6.79,6.79,0,0,1,4,5.86C250.12,201.35,250.8,207.83,251.33,214.33Zm-2.61,1.49a13.44,13.44,0,0,0-.09-2.61c-.21-2.28-.49-4.56-.71-6.84-.36-3.79-.68-7.59-1.07-11.38a4.27,4.27,0,0,0-3.7-4.05,10.63,10.63,0,0,0-2.32-.24q-15.95,0-31.9,0c-.49,0-1,.05-1.55.1v28h38.19A3,3,0,0,0,248.72,215.82Zm-44.1,3V190.75c-.57,0-1-.06-1.48-.06q-15.94,0-31.92,0a11.29,11.29,0,0,0-1.92.15c-2.85.45-4.15,1.94-4.38,4.79-.3,3.75-.66,7.5-1,11.25-.24,2.6-.6,5.2-.76,7.81S164,219,167,218.83a2.43,2.43,0,0,1,.27,0h37.38Z"/><path class="cls-19" d="M241.45,252.39a7.49,7.49,0,1,1-7.7,7.48A7.44,7.44,0,0,1,241.45,252.39Z"/><path class="cls-19" d="M248.76,279.92H234.12v-2.81a3.17,3.17,0,0,1,.77-.18c3.63,0,7.27,0,10.9,0C247.71,277,248.53,277.8,248.76,279.92Z"/><path class="cls-19" d="M231.33,277.86c0,2.16,0,4.32,0,6.48s0,4.24,0,6.35a3,3,0,0,1-1.94,2.92,3,3,0,0,1-3.34-.54,3,3,0,0,1-1.11-2.43c0-4.27,0-8.56,0-12.84a3.19,3.19,0,1,1,6.37.06Z"/><path class="cls-21" d="M222.13,282.84V289H189.69v-6.19Z"/><path class="cls-19" d="M222.09,277.05v2.86H219v-2.86Z"/><path class="cls-13" d="M217.54,237.3a11.79,11.79,0,1,1-23.58.07,11.79,11.79,0,1,1,23.58-.07Zm-2.53.09a9.26,9.26,0,1,0-9.28,9.22A9.34,9.34,0,0,0,215,237.39Z"/><path class="cls-19" d="M215.94,270.84v8.77H196.1v-8.77ZM211.43,277a1.51,1.51,0,0,0,1.32-1.47,1.39,1.39,0,1,0-2.77.18A1.34,1.34,0,0,0,211.43,277Zm-5.56,0a1.51,1.51,0,0,0,1.36-1.45,1.45,1.45,0,0,0-1.39-1.4,1.41,1.41,0,0,0-1.38,1.52A1.33,1.33,0,0,0,205.87,277Zm-4.17-1.39a1.46,1.46,0,0,0-1.34-1.46,1.43,1.43,0,0,0-1.43,1.48A1.32,1.32,0,0,0,200.3,277,1.51,1.51,0,0,0,201.7,275.57Z"/><path class="cls-19" d="M205.77,228.13a9.24,9.24,0,1,1-9.28,9.21A9.34,9.34,0,0,1,205.77,228.13Z"/><path class="cls-13" d="M212.75,275.49a1.51,1.51,0,0,1-1.32,1.47,1.34,1.34,0,0,1-1.45-1.29,1.39,1.39,0,1,1,2.77-.18Z"/><path class="cls-13" d="M207.23,275.51a1.51,1.51,0,0,1-1.36,1.45,1.33,1.33,0,0,1-1.41-1.33,1.41,1.41,0,0,1,1.38-1.52A1.45,1.45,0,0,1,207.23,275.51Z"/><path class="cls-21" d="M201.44,267.9h-3.26c-1.1,0-2.2,0-3.3,0-1.33,0-1.74.42-1.76,1.74s0,2.92,0,4.59c-1.51,0-2.87,0-4.22,0a1.77,1.77,0,0,1-.89-.55c-2.59-2.28-5.7-2.36-8.25-.11a2.6,2.6,0,0,1-1.87.65h-11c-3.9,0-5.56,1.31-6.53,5.13-.05.18-.09.35-.16.59a6.53,6.53,0,0,1-7.43-5.71,18.94,18.94,0,0,1-.14-2.61q.13-14.69.29-29.36c0-2.07.13-4.14.21-6.21,0-.35.08-.71.15-1.24,1.93.27,3.79.48,5.63.8a63.67,63.67,0,0,1,24.4,9.41,45.76,45.76,0,0,1,17.51,21.12C201,266.64,201.16,267.16,201.44,267.9ZM180.71,260a10.22,10.22,0,1,0-10.27,10.13A10.26,10.26,0,0,0,180.71,260Zm-20.29-9.74a5.44,5.44,0,1,0-.19-10.88,5.41,5.41,0,0,0-5.34,5.52A5.47,5.47,0,0,0,160.42,250.22Z"/><path class="cls-13" d="M200.36,274.11a1.46,1.46,0,0,1,1.34,1.46,1.51,1.51,0,0,1-1.4,1.39,1.32,1.32,0,0,1-1.37-1.37A1.43,1.43,0,0,1,200.36,274.11Z"/><path class="cls-19" d="M193,277.08V280h-3.12c-.05-1-.1-1.89-.14-2.87Z"/><path class="cls-19" d="M187,278.83c0,3.67,0,7.36,0,11a6.94,6.94,0,0,1-.19,1.64,3.15,3.15,0,0,1-3.29,2.37,3,3,0,0,1-2.88-2.84c-.09-2.29,0-4.59,0-6.89h0c0-1.93,0-3.86,0-5.79a5.76,5.76,0,0,1,.24-1.76,3.14,3.14,0,0,1,6,.33A7.66,7.66,0,0,1,187,278.83Z"/><path class="cls-13" d="M170.56,249.69a10.2,10.2,0,1,1-10.28,10.14A10.26,10.26,0,0,1,170.56,249.69ZM178,259.94a7.51,7.51,0,1,0-7.47,7.44A7.45,7.45,0,0,0,178,259.94Z"/><path class="cls-21" d="M177.92,282.84v6.21c-.49,0-.93.1-1.36.1l-21.67,0c-2,0-2.37-.34-2.39-2.42,0-.82,0-1.65,0-2.48s.49-1.38,1.46-1.47h22.91C177.19,282.76,177.5,282.8,177.92,282.84Z"/><path class="cls-19" d="M177.82,277v3h-14.6c.21-1.89.92-2.91,2.39-2.93C169.64,276.92,173.68,277,177.82,277Z"/><path class="cls-19" d="M170.53,252.39a7.5,7.5,0,1,1-7.54,7.5A7.45,7.45,0,0,1,170.53,252.39Z"/><path class="cls-13" d="M171.07,292.22V299s-.13,4-6.75,4-7.49-3.23-7.49-3.23.19-7.44,0-7.56Z"/><path class="cls-13" d="M165.78,244.67a5.45,5.45,0,1,1-10.89.19,5.41,5.41,0,0,1,5.34-5.52A5.47,5.47,0,0,1,165.78,244.67Zm-2.84.18a2.56,2.56,0,0,0-2.6-2.6,2.38,2.38,0,0,0-2.53,2.45,2.53,2.53,0,0,0,2.53,2.67A2.75,2.75,0,0,0,162.94,244.85Z"/><path class="cls-19" d="M160.34,242.25a2.56,2.56,0,0,1,2.6,2.6,2.75,2.75,0,0,1-2.6,2.52,2.53,2.53,0,0,1-2.53-2.67A2.38,2.38,0,0,1,160.34,242.25Z"/><path class="cls-19" d="M146.71,204.76c0,1.32,0,2.66,0,4h0c0,1.24,0,2.49,0,3.73s-.37,1.74-1.71,1.78c-1.1,0-2.21.06-3.32,0s-1.51-.44-1.53-1.53q-.06-4,0-8c0-1.1.41-1.49,1.52-1.52s2.39,0,3.58,0S146.67,203.64,146.71,204.76Z"/><circle class="cls-22" cx="205.83" cy="209.8" r="115.23"/></svg>